<?xml version="1.0" encoding="utf-8"?>
<!-- Generator: Adobe Illustrator 16.0.0, SVG Export Plug-In . SVG Version: 6.00 Build 0)  -->
<!DOCTYPE svg PUBLIC "-//W3C//DTD SVG 1.0//EN" "http://www.w3.org/TR/2001/REC-SVG-20010904/DTD/svg10.dtd">
<svg version="1.0" id="Layer_1" xmlns="http://www.w3.org/2000/svg" xmlns:xlink="http://www.w3.org/1999/xlink" x="0px" y="0px"
	 width="100px" height="100px" viewBox="0 0 100 100" enable-background="new 0 0 100 100" xml:space="preserve">
<path fill="#EFEBE9" d="M83.493,78.555l-16.986-3.775C62.93,73.984,60,70.332,60,66.667V64.6c0.833-0.967,1.628-2.033,2.38-3.223
	l4.655-10.564c0.982-3.224,1.764-6.731,2.262-10.473l-0.003-0.001c0.293-2.183,0.508-4.424,0.612-6.733
	c-0.352-0.078-0.697-0.152-0.983-0.207c-0.091-0.019-0.187-0.034-0.28-0.051c-0.067-0.082-0.137-0.168-0.205-0.251
	c-1.035-1.242-2.598-3.12-5.229-4.088c-2.638-0.97-5.088-0.513-6.55-0.242c-0.065,0.012-0.135,0.026-0.202,0.039
	c-0.052-0.031-0.101-0.063-0.151-0.094c-1.304-0.766-3.48-2.044-6.31-2.044c-2.833,0-5.007,1.281-6.309,2.046
	c-0.053,0.029-0.104,0.06-0.156,0.094c-0.068-0.016-0.133-0.028-0.202-0.042c-1.465-0.271-3.913-0.727-6.543,0.24
	c-2.637,0.971-4.199,2.85-5.234,4.092l-0.204,0.25c-0.092,0.017-0.187,0.032-0.277,0.051c-0.283,0.055-0.631,0.127-0.979,0.207
	c0.104,2.31,0.317,4.552,0.61,6.734c0.5,3.742,1.277,7.25,2.262,10.477l4.662,10.563c0.749,1.187,1.546,2.253,2.376,3.22v2.067
	c0,3.665-2.93,7.317-6.507,8.11l-16.985,3.777C12.931,79.35,10,83.001,10,86.667V90h80v-3.333C90,83.001,87.07,79.35,83.493,78.555z
	"/>
<path fill="#FFF8E1" d="M16.667,36.665c0,1.834,2.018,3.439,2.474,5.166c0.464,1.76-0.531,4,0.358,5.609
	c0.886,1.606,3.485,2.26,4.746,3.68c1.24,1.39,1.367,3.802,2.92,4.978c1.518,1.137,4.194,0.846,5.967,1.737
	c1.644,0.827,2.734,2.829,4.492,3.545l-4.662-10.563c-0.984-3.227-1.761-6.735-2.262-10.477c-0.293-2.183-0.506-4.425-0.61-6.734
	c0.349-0.08,0.696-0.152,0.979-0.207c0.091-0.019,0.186-0.034,0.277-0.051l0.204-0.25c1.035-1.242,2.598-3.121,5.234-4.092
	c2.63-0.966,5.078-0.51,6.543-0.24c0.069,0.013,0.134,0.026,0.202,0.042c0.052-0.034,0.104-0.065,0.156-0.094
	c1.302-0.765,3.476-2.046,6.309-2.046c2.829,0,5.006,1.278,6.31,2.044c0.051,0.031,0.1,0.063,0.151,0.094
	c0.067-0.013,0.137-0.027,0.202-0.039c1.462-0.271,3.912-0.728,6.55,0.242c2.632,0.969,4.194,2.846,5.229,4.088
	c0.068,0.083,0.138,0.169,0.205,0.251c0.094,0.017,0.189,0.032,0.28,0.051c0.286,0.055,0.632,0.129,0.983,0.207
	c-0.104,2.31-0.319,4.551-0.612,6.733l0.003,0.001c-0.498,3.741-1.279,7.249-2.262,10.473L62.38,61.377
	c1.754-0.716,2.849-2.712,4.485-3.542c1.777-0.892,4.445-0.599,5.967-1.737c1.553-1.173,1.684-3.584,2.92-4.978
	c1.264-1.413,3.859-2.071,4.746-3.679c0.889-1.608-0.102-3.85,0.361-5.61c0.455-1.727,2.474-3.33,2.474-5.166
	c0-1.834-2.019-3.438-2.472-5.165c-0.465-1.762,0.527-4-0.36-5.607c-0.885-1.609-3.481-2.264-4.746-3.678
	c-1.239-1.395-1.362-3.809-2.916-4.978c-1.521-1.143-4.196-0.844-5.971-1.738c-1.726-0.871-2.825-3.083-4.749-3.683
	c-1.865-0.582-4.256,0.53-6.27,0.228C53.902,11.758,52.051,10,50,10s-3.906,1.758-5.848,2.044c-2.015,0.304-4.406-0.81-6.272-0.228
	c-1.924,0.599-3.02,2.811-4.745,3.681c-1.771,0.896-4.451,0.596-5.967,1.737c-1.554,1.168-1.681,3.586-2.921,4.977
	c-1.262,1.417-3.858,2.073-4.748,3.677c-0.89,1.611,0.104,3.85-0.358,5.611C18.685,33.227,16.667,34.831,16.667,36.665z"/>
<path fill="#FF8F00" d="M37.624,61.38c-1.758-0.716-2.849-2.718-4.492-3.545c-1.772-0.892-4.449-0.601-5.967-1.737
	c-1.553-1.176-1.68-3.588-2.92-4.978c-1.261-1.42-3.86-2.074-4.746-3.68c-0.89-1.609,0.105-3.849-0.358-5.609
	c-0.456-1.727-2.474-3.332-2.474-5.166s2.018-3.438,2.474-5.166c0.463-1.761-0.531-4,0.358-5.611
	c0.89-1.604,3.486-2.261,4.748-3.677c1.24-1.391,1.367-3.809,2.921-4.977c1.516-1.141,4.195-0.841,5.967-1.737
	c1.726-0.87,2.821-3.083,4.745-3.681c1.866-0.582,4.258,0.531,6.272,0.228C46.094,11.758,47.949,10,50,10s3.902,1.758,5.85,2.044
	c2.014,0.302,4.404-0.81,6.27-0.228c1.924,0.6,3.023,2.812,4.749,3.683c1.774,0.894,4.45,0.595,5.971,1.738
	c1.554,1.169,1.677,3.583,2.916,4.978c1.265,1.414,3.861,2.069,4.746,3.678c0.888,1.607-0.104,3.845,0.36,5.607
	c0.453,1.727,2.472,3.331,2.472,5.165c0,1.836-2.019,3.439-2.474,5.166c-0.463,1.76,0.527,4.002-0.361,5.61
	c-0.887,1.608-3.482,2.266-4.746,3.679c-1.236,1.394-1.367,3.805-2.92,4.978c-1.521,1.139-4.189,0.846-5.967,1.737
	c-1.637,0.83-2.731,2.826-4.485,3.542l4.655-10.564c0.523-0.11,1.025-0.201,1.458-0.273c0.452-1.099,1.084-2.51,2.282-3.855
	c1.08-1.212,2.313-2.017,3.322-2.616c-0.07-1.077-0.078-2.456,0.313-3.938c0.371-1.414,1.009-2.555,1.592-3.465
	c-0.583-0.911-1.221-2.053-1.589-3.459c-0.391-1.479-0.383-2.859-0.314-3.938c-1.007-0.601-2.24-1.405-3.33-2.622
	c-1.191-1.341-1.819-2.751-2.272-3.853c-1.25-0.203-2.942-0.488-4.636-1.341c-1.747-0.884-2.942-2.097-3.814-2.983
	c-0.018-0.016-0.029-0.031-0.046-0.047c-0.071,0.012-0.14,0.021-0.208,0.034c-0.876,0.137-1.966,0.307-3.184,0.307
	c-0.592,0-1.174-0.041-1.731-0.123c-1.928-0.284-3.474-1.052-4.6-1.613c-0.092-0.047-0.189-0.095-0.28-0.146
	c-0.094,0.05-0.188,0.099-0.28,0.146c-1.129,0.561-2.673,1.328-4.576,1.611c-0.574,0.084-1.16,0.127-1.757,0.127
	c-1.218,0-2.307-0.172-3.182-0.31c-0.069-0.013-0.138-0.022-0.208-0.034c-0.013,0.016-0.027,0.029-0.042,0.042
	c-0.871,0.888-2.063,2.103-3.818,2.987c-1.688,0.854-3.382,1.138-4.632,1.341c-0.454,1.104-1.085,2.517-2.279,3.854
	c-1.08,1.211-2.318,2.018-3.325,2.617c0.069,1.078,0.077,2.458-0.314,3.937c-0.373,1.413-1.009,2.555-1.592,3.465
	c0.582,0.908,1.218,2.051,1.593,3.467c0.391,1.475,0.383,2.856,0.313,3.935c1.008,0.6,2.243,1.405,3.324,2.617
	c1.196,1.34,1.827,2.756,2.281,3.856c0.435,0.071,0.937,0.163,1.458,0.276L37.624,61.38z"/>
<path fill="#C2B59B" d="M83.493,78.555l-16.986-3.775C62.93,73.984,60,70.332,60,66.667V64.6c0.833-0.967,1.628-2.033,2.38-3.223
	l4.655-10.564c0.982-3.224,1.764-6.731,2.262-10.473l-0.003-0.001c0.293-2.183,0.508-4.424,0.612-6.733
	c-0.352-0.078-0.697-0.152-0.983-0.207c-0.091-0.019-0.187-0.034-0.28-0.051c-0.067-0.082-0.137-0.168-0.205-0.251
	c-1.035-1.242-2.598-3.12-5.229-4.088c-2.638-0.97-5.088-0.513-6.55-0.242c-0.065,0.012-0.135,0.026-0.202,0.039
	c-0.052-0.031-0.101-0.063-0.151-0.094c-1.304-0.766-3.48-2.044-6.31-2.044c-2.833,0-5.007,1.281-6.309,2.046
	c-0.053,0.029-0.104,0.06-0.156,0.094c-0.068-0.016-0.133-0.028-0.202-0.042c-1.465-0.271-3.913-0.727-6.543,0.24
	c-2.637,0.971-4.199,2.85-5.234,4.092l-0.204,0.25c-0.092,0.017-0.187,0.032-0.277,0.051c-0.283,0.055-0.631,0.127-0.979,0.207
	c0.104,2.31,0.317,4.552,0.61,6.734c0.5,3.742,1.277,7.25,2.262,10.477l4.662,10.563c0.749,1.187,1.546,2.253,2.376,3.22v2.067
	c0,3.665-2.93,7.317-6.507,8.11l-16.985,3.777C12.931,79.35,10,83.001,10,86.667V90h6.667v-3.333c0-0.544,0.755-1.487,1.289-1.604
	l16.979-3.775c5.7-1.264,10.318-6.26,11.452-11.957C47.56,69.759,48.764,70,50,70s2.441-0.241,3.613-0.667
	c1.133,5.692,5.748,10.688,11.451,11.953l16.979,3.774c0.534,0.117,1.289,1.063,1.289,1.605V90H90v-3.333
	C90,83.001,87.07,79.35,83.493,78.555z M50,63.333c-4.785,0-11.466-10.062-13.004-26.338c0.625-0.736,1.272-1.43,2.093-1.731
	c1.681-0.619,3.832,0.564,5.646,0.244c1.748-0.306,3.418-2.173,5.264-2.173c1.842,0,3.512,1.867,5.264,2.173
	c1.813,0.319,3.965-0.861,5.646-0.244c0.819,0.303,1.471,0.999,2.1,1.738C61.465,53.273,54.782,63.333,50,63.333z"/>
</svg>
